<svg width="33" height="32" viewBox="0 0 33 32" fill="none" xmlns="http://www.w3.org/2000/svg">
<g clip-path="url(#clip0_128_2741)">
<path d="M22.864 0.016014C22.796 -0.059986 20.346 0.0460141 18.214 2.36001C16.082 4.67201 16.41 7.32401 16.458 7.39201C16.506 7.46001 19.498 7.56601 21.408 4.87601C23.318 2.18601 22.932 0.094014 22.864 0.016014ZM29.492 23.482C29.396 23.29 24.842 21.014 25.266 16.638C25.69 12.26 28.616 11.06 28.662 10.93C28.708 10.8 27.468 9.35001 26.154 8.61601C25.1892 8.09852 24.1214 7.80203 23.028 7.74801C22.812 7.74201 22.062 7.55801 20.52 7.98001C19.504 8.25801 17.214 9.15801 16.584 9.19401C15.952 9.23001 14.072 8.15001 12.05 7.86401C10.756 7.61401 9.38397 8.12601 8.40197 8.52001C7.42197 8.91201 5.55797 10.028 4.25397 12.994C2.94997 15.958 3.63197 20.654 4.11997 22.114C4.60797 23.572 5.36997 25.962 6.66597 27.706C7.81797 29.674 9.34597 31.04 9.98397 31.504C10.622 31.968 12.422 32.276 13.67 31.638C14.674 31.022 16.486 30.668 17.202 30.694C17.916 30.72 19.324 31.002 20.766 31.772C21.908 32.166 22.988 32.002 24.07 31.562C25.152 31.12 26.718 29.444 28.546 26.046C29.24 24.466 29.556 23.612 29.492 23.482Z" fill="black"/>
<path d="M22.864 0.016014C22.796 -0.059986 20.346 0.0460141 18.214 2.36001C16.082 4.67201 16.41 7.32401 16.458 7.39201C16.506 7.46001 19.498 7.56601 21.408 4.87601C23.318 2.18601 22.932 0.094014 22.864 0.016014ZM29.492 23.482C29.396 23.29 24.842 21.014 25.266 16.638C25.69 12.26 28.616 11.06 28.662 10.93C28.708 10.8 27.468 9.35001 26.154 8.61601C25.1892 8.09852 24.1214 7.80203 23.028 7.74801C22.812 7.74201 22.062 7.55801 20.52 7.98001C19.504 8.25801 17.214 9.15801 16.584 9.19401C15.952 9.23001 14.072 8.15001 12.05 7.86401C10.756 7.61401 9.38397 8.12601 8.40197 8.52001C7.42197 8.91201 5.55797 10.028 4.25397 12.994C2.94997 15.958 3.63197 20.654 4.11997 22.114C4.60797 23.572 5.36997 25.962 6.66597 27.706C7.81797 29.674 9.34597 31.04 9.98397 31.504C10.622 31.968 12.422 32.276 13.67 31.638C14.674 31.022 16.486 30.668 17.202 30.694C17.916 30.72 19.324 31.002 20.766 31.772C21.908 32.166 22.988 32.002 24.07 31.562C25.152 31.12 26.718 29.444 28.546 26.046C29.24 24.466 29.556 23.612 29.492 23.482Z" fill="black"/>
</g>
<defs>
<clipPath id="clip0_128_2741">
<rect width="32" height="32" fill="white" transform="translate(0.5)"/>
</clipPath>
</defs>
</svg>
