<svg width="28" height="29" viewBox="0 0 28 29" fill="none" xmlns="http://www.w3.org/2000/svg">
<path d="M4.66663 7.49992C4.66663 7.1905 4.78954 6.89375 5.00833 6.67496C5.22713 6.45617 5.52387 6.33325 5.83329 6.33325H22.1666C22.476 6.33325 22.7728 6.45617 22.9916 6.67496C23.2104 6.89375 23.3333 7.1905 23.3333 7.49992C23.3333 7.80934 23.2104 8.10608 22.9916 8.32488C22.7728 8.54367 22.476 8.66659 22.1666 8.66659H5.83329C5.52387 8.66659 5.22713 8.54367 5.00833 8.32488C4.78954 8.10608 4.66663 7.80934 4.66663 7.49992ZM4.66663 21.4999C4.66663 21.1905 4.78954 20.8938 5.00833 20.675C5.22713 20.4562 5.52387 20.3333 5.83329 20.3333H22.1666C22.476 20.3333 22.7728 20.4562 22.9916 20.675C23.2104 20.8938 23.3333 21.1905 23.3333 21.4999C23.3333 21.8093 23.2104 22.1061 22.9916 22.3249C22.7728 22.5437 22.476 22.6666 22.1666 22.6666H5.83329C5.52387 22.6666 5.22713 22.5437 5.00833 22.3249C4.78954 22.1061 4.66663 21.8093 4.66663 21.4999ZM5.83329 13.3333C5.52387 13.3333 5.22713 13.4562 5.00833 13.675C4.78954 13.8938 4.66663 14.1905 4.66663 14.4999C4.66663 14.8093 4.78954 15.1061 5.00833 15.3249C5.22713 15.5437 5.52387 15.6666 5.83329 15.6666H15.1666C15.476 15.6666 15.7728 15.5437 15.9916 15.3249C16.2104 15.1061 16.3333 14.8093 16.3333 14.4999C16.3333 14.1905 16.2104 13.8938 15.9916 13.675C15.7728 13.4562 15.476 13.3333 15.1666 13.3333H5.83329Z" fill="#1F1C1C"/>
</svg>
