<svg width="24" height="24" viewBox="0 0 24 24" fill="none" xmlns="http://www.w3.org/2000/svg">
<path d="M2.99974 13.9999H4.99974V20.9999C4.99974 21.2651 5.1051 21.5195 5.29263 21.707C5.48017 21.8945 5.73452 21.9999 5.99974 21.9999H17.9997C18.265 21.9999 18.5193 21.8945 18.7068 21.707C18.8944 21.5195 18.9997 21.2651 18.9997 20.9999V13.9999H20.9997C21.193 14.0001 21.3821 13.9441 21.5442 13.8389C21.7063 13.7336 21.8343 13.5835 21.9127 13.4069C21.9917 13.2304 22.0177 13.0347 21.9875 12.8437C21.9573 12.6526 21.8723 12.4745 21.7427 12.3309L12.7427 2.3309C12.3637 1.9089 11.6357 1.9089 11.2567 2.3309L2.25674 12.3309C2.12743 12.4746 2.04253 12.6526 2.0123 12.8435C1.98208 13.0344 2.00783 13.23 2.08644 13.4066C2.16505 13.5832 2.29315 13.7332 2.45523 13.8385C2.61732 13.9438 2.80645 13.9999 2.99974 13.9999ZM8.65274 11.6409C9.06897 11.23 9.63033 10.9996 10.2152 10.9996C10.8001 10.9996 11.3615 11.23 11.7777 11.6409L12.0017 11.8609L12.2247 11.6409C12.6411 11.2299 13.2027 10.9995 13.7877 10.9995C14.3728 10.9995 14.9343 11.2299 15.3507 11.6409C15.5573 11.8396 15.7217 12.078 15.8339 12.3418C15.9462 12.6055 16.004 12.8893 16.004 13.1759C16.004 13.4626 15.9462 13.7463 15.8339 14.01C15.7217 14.2738 15.5573 14.5122 15.3507 14.7109L12.0017 17.9999L8.65274 14.7109C8.44616 14.5122 8.28182 14.2738 8.16956 14.01C8.05731 13.7463 7.99945 13.4626 7.99945 13.1759C7.99945 12.8893 8.05731 12.6055 8.16956 12.3418C8.28182 12.078 8.44616 11.8396 8.65274 11.6409Z" fill="#5D5D5D"/>
</svg>
