<svg width="20" height="20" viewBox="0 0 20 20" fill="none" xmlns="http://www.w3.org/2000/svg">
<path d="M0.999738 11.9999H2.99974V18.9999C2.99974 19.2651 3.1051 19.5195 3.29263 19.707C3.48017 19.8945 3.73452 19.9999 3.99974 19.9999H15.9997C16.265 19.9999 16.5193 19.8945 16.7068 19.707C16.8944 19.5195 16.9997 19.2651 16.9997 18.9999V11.9999H18.9997C19.193 12.0001 19.3821 11.9441 19.5442 11.8389C19.7063 11.7336 19.8343 11.5835 19.9127 11.4069C19.9917 11.2304 20.0177 11.0347 19.9875 10.8437C19.9573 10.6526 19.8723 10.4745 19.7427 10.3309L10.7427 0.330904C10.3637 -0.0910957 9.63574 -0.0910957 9.25674 0.330904L0.256738 10.3309C0.127429 10.4746 0.042526 10.6526 0.0123019 10.8435C-0.0179222 11.0344 0.00782824 11.23 0.0864374 11.4066C0.165047 11.5832 0.293145 11.7332 0.455233 11.8385C0.617321 11.9438 0.806451 11.9999 0.999738 11.9999ZM6.65274 9.6409C7.06897 9.22997 7.63033 8.99955 8.21524 8.99955C8.80014 8.99955 9.36151 9.22997 9.77774 9.6409L10.0017 9.8609L10.2247 9.6409C10.6411 9.22991 11.2027 8.99946 11.7877 8.99946C12.3728 8.99946 12.9343 9.22991 13.3507 9.6409C13.5573 9.83964 13.7217 10.078 13.8339 10.3418C13.9462 10.6055 14.004 10.8893 14.004 11.1759C14.004 11.4626 13.9462 11.7463 13.8339 12.01C13.7217 12.2738 13.5573 12.5122 13.3507 12.7109L10.0017 15.9999L6.65274 12.7109C6.44616 12.5122 6.28182 12.2738 6.16956 12.01C6.05731 11.7463 5.99945 11.4626 5.99945 11.1759C5.99945 10.8893 6.05731 10.6055 6.16956 10.3418C6.28182 10.078 6.44616 9.83964 6.65274 9.6409Z" fill="#8B8B8B"/>
</svg>
