<svg width="25" height="24" viewBox="0 0 25 24" fill="none" xmlns="http://www.w3.org/2000/svg">
<path d="M12.0004 2C13.0612 2 14.0787 2.42143 14.8288 3.17157C15.5789 3.92172 16.0004 4.93913 16.0004 6H18.0354C18.5536 5.99993 19.0515 6.20099 19.4244 6.56081C19.7973 6.92064 20.016 7.41114 20.0344 7.929L20.4624 19.929C20.4719 20.1974 20.4273 20.4649 20.3312 20.7157C20.2351 20.9665 20.0894 21.1953 19.903 21.3886C19.7165 21.5819 19.493 21.7356 19.2459 21.8407C18.9987 21.9457 18.7329 21.9999 18.4644 22H5.53637C5.26781 21.9999 5.00202 21.9457 4.75486 21.8407C4.5077 21.7356 4.28422 21.5819 4.09776 21.3886C3.91129 21.1953 3.76567 20.9665 3.66956 20.7157C3.57345 20.4649 3.52884 20.1974 3.53837 19.929L3.96637 7.929C3.98477 7.41114 4.20344 6.92064 4.57632 6.56081C4.9492 6.20099 5.44719 5.99993 5.96537 6H8.00037C8.00037 4.93913 8.4218 3.92172 9.17194 3.17157C9.92209 2.42143 10.9395 2 12.0004 2ZM10.0004 8H8.00037V9C8.00065 9.25488 8.09825 9.50003 8.27322 9.68537C8.44819 9.8707 8.68732 9.98224 8.94176 9.99717C9.19621 10.0121 9.44675 9.92933 9.6422 9.76574C9.83766 9.60215 9.96327 9.3701 9.99337 9.117L10.0004 9V8ZM16.0004 8H14.0004V9C14.0004 9.26522 14.1057 9.51957 14.2933 9.70711C14.4808 9.89464 14.7352 10 15.0004 10C15.2656 10 15.5199 9.89464 15.7075 9.70711C15.895 9.51957 16.0004 9.26522 16.0004 9V8ZM12.0004 4C11.4958 3.99984 11.0098 4.19041 10.6398 4.5335C10.2698 4.87659 10.0432 5.34684 10.0054 5.85L10.0004 6H14.0004C14.0004 5.46957 13.7897 4.96086 13.4146 4.58579C13.0395 4.21071 12.5308 4 12.0004 4Z" fill="#989898"/>
</svg>
